<svg height="1184" preserveAspectRatio="xMidYMid meet" viewBox="0 0 1776 887.999991" width="2368" xmlns="http://www.w3.org/2000/svg" zoomAndPan="magnify"><path d="m-177.6-88.799999h2131.2v1065.599989h-2131.2z" fill="#fff"/><path d="m-177.6-88.799999h2131.2v1065.599989h-2131.2z" fill="#fff"/><g fill="#57ab27"><path d="m254.160156 330.359375c-11.761718 3.71875-20.519531 20.878906-16.019531 38.941406 4.4375 17.757813 22.5 30.238281 38.757813 23.097657 17.160156-7.558594 20.941406-24.296876 13.5625-41.039063-7.859376-17.820313-21.359376-25.738281-36.300782-21zm0 0"/><path d="m339.601562 281.28125c-20.042968-6.0625-39.960937 5.878906-45.300781 23.578125-6.300781 20.941406 2.757813 38.941406 20.519531 46.441406 18.539063 8.578125 42.839844 1.320313 50.339844-19.800781 8.039063-20.039062-3.898437-43.738281-25.621094-50.28125zm0 0"/><path d="m246.421875 271.261719c-7.023437 7.859375-11.882813 23.21875-4.082031 31.796875 7.800781 8.582031 24.058594 8.101562 33.601562-3.480469 9.539063-11.578125 8.519532-25.136719-.78125-32.878906-9.359375-7.738281-21.660156-3.300781-28.738281 4.5625zm0 0"/><path d="m405.839844 260.039062c-10.378906-7.980468-24.78125-7.140624-33.359375 1.082032-8.582031 8.21875-4.980469 20.9375 8.097656 31.257812 11.042969 8.699219 24.722656 4.019532 31.023437-3.300781 5.878907-6.777344 4.679688-21-5.820312-29.039063zm0 0"/><path d="m333.539062 370.621094c-15.898437 3.300781-25.4375 13.4375-21.417968 27.71875 3.359375 11.878906 17.878906 14.640625 29.878906 12.121094 12-2.519532 21-12.78125 20.519531-22.800782-.539062-10.082031-13.078125-20.28125-28.980469-16.980468zm0 0"/><path d="m376.621094 339.539062c-7.980469 21 2.097656 42 18.359375 44.519532 16.257812 2.460937 31.679687-12.957032 34.441406-28.917969 2.699219-15.960937-1.140625-31.199219-15.480469-37.441406-13.921875-6-29.339844.839843-37.261718 21.839843zm0 0"/><path d="m321.359375 217.859375c-16.019531 1.5-29.878906 9-33.121094 23.460937-3.898437 17.578126 13.140625 28.140626 34.621094 25.078126 22.980469-3.238282 38.582031-14.636719 35.101563-29.277344-3.480469-14.640625-20.582032-20.761719-36.601563-19.261719zm0 0"/><path d="m96.539062 255.058594c31.921876-7.4375 85.320313-5.398438 110.640626-2.820313 0 0-35.28125-27.476562-39.660157-49.199219-3.058593-15.179687 7.320313-23.640624 19.621094-21.898437 12.238281 1.738281 21.898437 11.097656 32.519531 16.980469 11.039063 6.179687 30.359375 15.179687 38.578125 15.777344 0 0-31.617187-49.078126-29.636719-96.777344 1.019532-24.660156 11.21875-47.160156 24.296876-57.601563h-193.378907v210.121094c7.320313-5.339844 18.839844-10.320313 37.019531-14.519531zm0 0"/><path d="m922.140625 238.199219c-24.121094 0-72.300781 14.222656-72.300781 91.800781 0 65.039062 34.921875 91.800781 68.699218 91.800781 50.640626 0 73.5-41.460937 73.5-96 0-58.742187-28.917968-87.601562-69.898437-87.601562zm0 0"/><path d="m1640.761719 444.121094c-10.5625 26.457031-27.78125 39.117187-52.921875 39.117187h-30.421875c-15.898438 0-39.71875-10.378906-48.957031-36.839843l-83.339844-212.878907c-17.222656-43.738281 7.738281-52.917969 26.277344-52.917969h17.761718c22.5 0 42.121094 11.519532 48.78125 34.558594l29.097656 124.378906c6.601563 20.699219 17.582032 29.941407 30.839844 29.941407 7.921875 0 24.179688-10.378907 29.519532-29.941407l23.820312-105.960937c13.261719-43.738281 22.382812-52.917969 55.980469-52.917969 8.519531 0 18.722656.359375 27.179687 3.179688h.121094v-124.320313h-641.820312c3 5.761719 4.5 13.199219 4.5 22.441407v359.519531c0 23.640625-12.417969 36-41.039063 36-31.082031 0-37.320313-9-57.179687-9-31.082032 0-34.800782 15.71875-80.882813 15.71875-52.199219 0-134.339844-30.898438-134.339844-151.257813 0-120.363281 79.621094-152.402344 133.082031-152.402344 37.320313 0 49.738282 9 72.179688 9 18.660156 0 23.640625-10.019531 24.898438-33.660156v-79.019531c0-6.300781 1.800781-12.121094 4.800781-17.039063 0-.121093.121093-.242187.121093-.359374h-272.582031c6.480469 7.378906 8.882813 16.800781 8.882813 26.757812 0 34.441406-24 44.941406-52.441406 44.941406-52.5 0-58.441407-22.5-58.441407-43.441406 0-8.699219 1.742188-15.71875 4.800781-21.417969 1.140626-2.402343 2.640626-4.679687 4.5625-6.839843h-352.980468c8.519531 10.019531 11.457031 29.339843 12.179687 33.839843 6.898438 43.320313 20.097657 88.980469 36.71875 102.960938 0 0 9.539063-47.882813 36.960938-69.660157 28.078125-22.320312 40.320312-.722656 39.359375 11.039063-1.140625 13.019531-18.539063 47.039063-12.960938 76.859375 0 0 56.28125-41.101562 107.339844-42.71875 51.0625-1.621094 64.621094 19.738281 65.941406 27 1.859375 9.898438-2.761718 19.5-21.179687 28.5-19.441407 9.539062-78.179688 24.539062-93.359375 43.378906 0 0 77.699218 17.519532 77.699218 46.917969 0 14.460937-11.582031 18.960937-28.261718 19.742187-16.679688.71875-43.738282-3.78125-52.5-5.039062 0 0 34.082031 18.71875 69.722656 67.257812 35.519531 48.300782 31.320312 69.902344 20.277344 79.261719-14.820313 12.597657-51.179688 3.660157-91.257813-34.921875-39.300781-37.859375-63.0625-34.859375-63.0625-34.859375s2.820313 29.160157 1.5625 73.621094c-.960937 34.800781-2.941406 80.878906-16.320312 99h226.140625c-3.359375-5.761719-5.339844-13.441406-5.339844-23.460937 0-15.898438 6.417969-27.597657 17.457031-35.941407 20.523438-15.476562 24.78125-29.878906 24.78125-51.957031v-249.902344c0-22.378906 16.199219-39.777344 36.058594-39.777344h19.921875c26.101562 0 38.578125 14.9375 38.578125 46.019532v279.359375c0 23.578125-9.058594 45.839843-24.417969 62.460937-3.898437 4.257813-8.941406 8.9375-15.121094 13.199219h1027.019532v-322.742187l-73.617188 185.160156zm-245.941407 4.140625c0 22.5-14.941406 28.136719-36.058593 28.136719-26.101563 0-38.582031-10.136719-54.722657-10.136719-28.617187 0-48.480468 18-90.777343 18-69.660157 0-106.980469-36-106.980469-85.5s44.757812-88.863281 145.5-101.222657c41.039062-4.5 53.519531-19.140624 53.519531-31.5 0-22.5-19.921875-37.140624-43.5625-37.140624-47.277343 0-43.558593 37.140624-95.757812 37.140624-17.402344 0-36.058594-3.359374-36.058594-22.5 0-20.21875 26.097656-63 125.636719-63 87.0625 0 139.320312 18 139.320312 99v168.722657zm0 0"/><path d="m312.601562 518.21875c-6.421874-32.519531-6.242187-74.878906-6.242187-74.878906s-15.597656 45.238281-30.71875 54c-7.082031 4.082031-19.921875 3.601562-22.800781-10.917969-2.820313-14.160156 4.378906-48.84375 3.121094-63.121094-13.800782 3.898438-44.222657 57.480469-68.640626 69.480469-18.121093 8.878906-37.320312 11.878906-45.839843-5.882812-7.441407-15.539063 5.941406-35.9375 12.660156-47.878907 12.179687-21.597656 21.179687-50.097656 31.558594-69.960937 10.378906-19.859375 21.902343-34.199219 35.222656-40.558594 0 0-54.421875 21.960938-117.0625 5.878906-21.480469-5.519531-35.578125-13.140625-44.339844-20.820312v268.082031h280.980469c-14.761719-15.242187-25.078125-49.019531-27.960938-63.480469zm0 0"/><path d="m1275.179688 344.101562c-25.859376 0-77.578126 15.597657-77.578126 46.738282 0 18.898437 17.21875 35.640625 44.339844 35.640625 32.039063 0 64.019532-26.699219 64.019532-55.679688 0-14.460937-8.640626-26.761719-30.78125-26.761719zm0 0"/></g><path d="m81.300781 684.960938c9.898438 0 10.140625-3.78125 10.140625-13.261719v-51.179688h11.519532v51c0 16.019531-3.960938 23.878907-21.660157 23.878907s-21.660156-7.859376-21.660156-23.878907l11.519531.242188c0 9.597656.300782 13.257812 10.140625 13.257812zm0 0"/><path d="m162.121094 694.199219h-11.640625v-3.359375s-7.859375 4.5-14.519531 4.5c-15.421876 0-18.601563-7.980469-18.601563-26.878906v-28.082032h11.761719v28.199219c0 11.941406.777344 16.382813 9.179687 16.382813 6.480469 0 12.300781-2.820313 12.300781-2.820313v-41.761719h11.636719v53.761719zm0 0"/><path d="m173.761719 703.679688c0-5.519532 2.699219-8.820313 8.160156-13.019532-2.28125-1.5-3.542969-4.5-3.542969-7.859375 0-2.460937 3.902344-8.582031 3.902344-8.582031-3.960938-2.339844-7.742188-6.480469-7.742188-16.140625 0-13.558594 9.121094-18.71875 21.539063-18.71875 4.980469 0 10.980469 1.378906 10.980469 1.378906l16.679687-.417969v9.480469l-8.9375-.539062c1.378907 1.796875 2.878907 4.617187 2.878907 8.816406 0 14.640625-7.621094 18.601563-21.960938 18.601563-1.078125 0-3.777344-.238282-4.738281-.417969 0 0-1.5 3.660156-1.5 5.039062 0 3.417969 1.199219 4.078125 11.640625 4.199219 16.980468.121094 22.257812 3.660156 22.257812 16.019531s-10.4375 17.640625-24.898437 17.640625c-16.261719 0-24.78125-3.238281-24.78125-15.480468zm15.839843-8.699219c-3 2.460937-4.320312 4.320312-4.320312 7.621093 0 4.976563 3.539062 7.019532 13.378906 7.019532 8.699219 0 13.019532-2.160156 13.019532-7.441406 0-5.820313-2.820313-6.480469-11.519532-6.539063-3.359375 0-10.558594-.660156-10.558594-.660156zm16.4375-36.902344c0-6.476563-2.820312-9.597656-10.019531-9.597656s-9.898437 3.121093-9.898437 9.597656c0 6.480469 3 9.601563 9.898437 9.601563 6.902344 0 10.019531-3 10.019531-9.601563zm0 0"/><path d="m274.199219 684.179688.242187 8.699218s-12.300781 2.460938-21.722656 2.460938c-16.140625 0-22.378906-8.578125-22.378906-27.539063 0-18.960937 8.519531-28.621093 23.339844-28.621093 14.820312 0 22.621093 7.859374 22.621093 24.660156l-.78125 8.398437h-33.359375c.121094 8.582031 3.359375 12.902344 12.300782 12.902344 8.9375 0 19.800781-.960937 19.800781-.960937zm-20.578125-35.28125c-7.980469 0-11.519532 3.960937-11.640625 14.28125h22.738281c0-10.738282-3.238281-14.28125-11.097656-14.28125zm0 0"/><path d="m287.578125 640.441406h11.640625v3.359375s7.859375-4.5 14.882812-4.5c14.9375 0 18.597657 8.519531 18.597657 26.160157v28.800781h-11.640625v-28.5c0-10.742188-1.378906-16.023438-9.597656-16.023438-6.242188 0-12.179688 2.820313-12.179688 2.820313v41.761718h-11.761719v-53.761718zm0 0"/><path d="m378.660156 694.199219v-2.820313s-7.859375 3.960938-14.398437 3.960938c-13.800781 0-20.339844-7.199219-20.339844-27.960938 0-19.5 7.019531-28.199218 22.378906-28.199218 4.320313 0 11.640625 1.320312 12.300781 1.378906v-22.558594h11.757813v76.140625h-11.640625zm-.121094-11.9375v-31.863281c-.660156-.117188-6.898437-1.078126-11.398437-1.078126-7.980469 0-11.402344 5.820313-11.402344 18.058594 0 13.742188 3.78125 17.519532 10.320313 17.519532 6.121094 0 12.480468-2.699219 12.480468-2.699219zm0 0"/><path d="m460.441406 694.199219v-2.820313s-7.863281 3.960938-14.402344 3.960938c-13.800781 0-20.339843-7.199219-20.339843-27.960938 0-19.5 7.019531-28.199218 22.378906-28.199218 4.320313 0 11.640625 1.320312 12.300781 1.378906v-22.558594h11.761719v76.140625h-11.640625zm-.0625-11.9375v-31.863281c-.660156-.117188-6.898437-1.078126-11.398437-1.078126-7.980469 0-11.402344 5.820313-11.402344 18.058594 0 13.742188 3.78125 17.519532 10.320313 17.519532 6.121093 0 12.480468-2.699219 12.480468-2.699219zm0 0"/><path d="m527.640625 684.179688.238281 8.699218s-12.300781 2.460938-21.71875 2.460938c-16.140625 0-22.378906-8.578125-22.378906-27.539063 0-18.960937 8.519531-28.621093 23.339844-28.621093 14.820312 0 22.617187 7.859374 22.617187 24.660156l-.777343 8.398437h-33.359376c.117188 8.582031 3.359376 12.902344 12.296876 12.902344 8.941406 0 19.800781-.960937 19.800781-.960937zm-20.582031-35.28125c-7.980469 0-11.519532 3.960937-11.636719 14.28125h22.738281c0-10.738282-3.238281-14.28125-11.101562-14.28125zm0 0"/><path d="m559.199219 649.800781c-6.480469 0-9.359375 1.5-9.359375 5.9375 0 3.542969 2.28125 4.5 12.839844 6.363281 12.898437 2.277344 17.519531 5.457032 17.519531 16.257813 0 12.601563-7.980469 17.101563-21.300781 17.101563-7.4375 0-19.917969-2.339844-19.917969-2.339844l.417969-9.78125s12.902343 1.738281 18.421874 1.738281c7.738282 0 10.738282-1.617187 10.738282-6.359375 0-3.777344-1.859375-4.980469-12.480469-6.660156-11.816406-1.917969-17.878906-4.5-17.878906-15.898438 0-12.179687 9.480469-16.679687 20.160156-16.679687 7.859375 0 20.21875 2.339843 20.21875 2.339843l-.238281 9.78125s-12.71875-1.742187-19.140625-1.742187zm0 0"/><path d="m616.558594 620.519531h25.5c23.820312 0 29.519531 12.71875 29.519531 35.582031 0 22.859376-5.15625 38.097657-29.519531 38.097657h-25.5zm25.5 10.441407h-13.558594v52.738281h13.558594c14.882812 0 17.101562-11.398438 17.101562-27.539063s-2.28125-25.199218-17.101562-25.199218zm0 0"/><path d="m725.519531 684.179688.242188 8.699218s-12.300781 2.460938-21.722657 2.460938c-16.140624 0-22.378906-8.578125-22.378906-27.539063 0-18.960937 8.519532-28.621093 23.339844-28.621093s22.621094 7.859374 22.621094 24.660156l-.78125 8.398437h-33.359375c.121093 8.582031 3.359375 12.902344 12.300781 12.902344 8.9375 0 19.796875-.960937 19.796875-.960937zm-20.578125-35.28125c-7.980468 0-11.519531 3.960937-11.640625 14.28125h22.738281c0-10.738282-3.238281-14.28125-11.097656-14.28125zm0 0"/><path d="m783.121094 694.199219h-11.640625v-3.359375s-7.859375 4.5-14.519531 4.5c-15.421876 0-18.601563-7.980469-18.601563-26.878906v-28.082032h11.761719v28.199219c0 11.941406.777344 16.382813 9.179687 16.382813 6.480469 0 12.300781-2.820313 12.300781-2.820313v-41.761719h11.636719v53.761719zm0 0"/><path d="m811.441406 674.101562c0 8.039063.296875 10.859376 5.9375 10.859376 3 0 8.820313-.300782 8.820313-.300782l.539062 9.359375s-7.199219 1.378907-10.976562 1.378907c-12.183594 0-15.960938-4.5-15.960938-19.976563v-24.960937h-6.902343v-10.019532h6.902343v-15.601562h11.640625v15.601562h14.878906v10.019532h-14.878906zm0 0"/><path d="m854.101562 649.800781c-6.480468 0-9.363281 1.5-9.363281 5.9375 0 3.542969 2.28125 4.5 12.839844 6.363281 12.902344 2.277344 17.523437 5.457032 17.523437 16.257813 0 12.601563-7.980468 17.101563-21.300781 17.101563-7.441406 0-19.921875-2.339844-19.921875-2.339844l.421875-9.78125s12.898438 1.738281 18.417969 1.738281c7.742188 0 10.742188-1.617187 10.742188-6.359375 0-3.777344-1.859376-4.980469-12.480469-6.660156-11.820313-1.917969-17.878907-4.5-17.878907-15.898438 0-12.179687 9.476563-16.679687 20.160157-16.679687 7.859375 0 20.21875 2.339843 20.21875 2.339843l-.242188 9.78125s-12.71875-1.742187-19.136719-1.742187zm0 0"/><path d="m922.679688 641.28125-.417969 9.238281s-8.523438-.839843-12.601563-.839843c-11.21875 0-13.800781 4.5-13.800781 16.921874 0 13.738282 2.28125 18.417969 13.859375 18.417969 4.082031 0 12.601562-.839843 12.601562-.839843l.300782 9.359374s-10.859375 1.921876-16.382813 1.921876c-16.558593 0-22.257812-8.160157-22.257812-28.800782 0-19.261718 6.480469-27.300781 22.5-27.300781 5.699219 0 16.140625 2.039063 16.140625 2.039063zm0 0"/><path d="m933.960938 618.058594h11.757812v25.203125s7.980469-3.960938 14.761719-3.960938c14.941406 0 18.601562 8.519531 18.601562 26.160157v28.800781h-11.761719v-28.5c0-10.742188-1.320312-16.023438-9.601562-16.023438-5.9375 0-12.058594 2.339844-12.058594 2.339844v42.183594h-11.761718v-76.140625zm0 0"/><path d="m1034.101562 684.179688.238282 8.699218s-12.300782 2.460938-21.71875 2.460938c-16.140625 0-22.382813-8.578125-22.382813-27.539063 0-18.960937 8.523438-28.621093 23.339844-28.621093 14.820313 0 22.621094 7.859374 22.621094 24.660156l-.777344 8.398437h-33.363281c.121094 8.582031 3.363281 12.902344 12.300781 12.902344 8.941406 0 19.800781-.960937 19.800781-.960937zm-20.582031-35.28125c-7.980469 0-11.519531 3.960937-11.640625 14.28125h22.742188c0-10.738282-3.242188-14.28125-11.101563-14.28125zm0 0"/><path d="m1047.421875 640.441406h11.636719v3.359375s7.863281-4.5 14.882812-4.5c14.9375 0 18.597656 8.519531 18.597656 26.160157v28.800781h-11.640624v-28.5c0-10.742188-1.378907-16.023438-9.597657-16.023438-6.242187 0-12.179687 2.820313-12.179687 2.820313v41.761718h-11.761719v-53.761718zm0 0"/><path d="m1166.941406 620.519531 18.296875 73.679688h-12.058593l-3.960938-15.839844h-28.320312l-3.957032 15.839844h-11.941406l18.179688-73.679688h23.820312zm-.121094 47.339844-9.058593-37.320313h-5.402344l-9.179687 37.320313zm0 0"/><path d="m1195.019531 618.058594h11.761719v76.140625h-11.761719zm0 0"/><path d="m1233.238281 640.441406v3.359375s7.441407-4.5 13.921875-4.5c13.980469 0 20.578125 7.980469 20.578125 27.539063 0 22.140625-7.558593 28.621094-24.117187 28.621094-4.441406 0-9.601563-.839844-10.203125-.960938v22.921875h-11.757813v-76.921875h11.640625zm.121094 12.238282v31.742187c.539063.117187 5.699219.839844 9.480469.839844 10.019531 0 12.898437-5.28125 12.898437-18.480469 0-13.203125-3.957031-17.101562-10.679687-17.101562-5.699219 0-11.757813 3-11.757813 3zm0 0"/><path d="m1320.78125 684.179688.238281 8.699218s-12.300781 2.460938-21.71875 2.460938c-16.140625 0-22.378906-8.578125-22.378906-27.539063 0-18.960937 8.519531-28.621093 23.339844-28.621093 14.816406 0 22.617187 7.859374 22.617187 24.660156l-.777344 8.398437h-33.363281c.121094 8.582031 3.363281 12.902344 12.300781 12.902344 8.941407 0 19.800782-.960937 19.800782-.960937zm-20.582031-35.28125c-7.980469 0-11.519531 3.960937-11.640625 14.28125h22.742187c0-10.738282-3.242187-14.28125-11.101562-14.28125zm0 0"/><path d="m1334.160156 640.441406h11.640625v3.359375s7.859375-4.5 14.878907-4.5c14.941406 0 18.601562 8.519531 18.601562 26.160157v28.800781h-11.640625v-28.5c0-10.742188-1.378906-16.023438-9.601563-16.023438-6.238281 0-12.179687 2.820313-12.179687 2.820313v41.761718h-11.757813v-53.761718zm0 0"/><path d="m1409.941406 684.179688h3.417969l10.742187-43.800782h11.9375l-13.980468 53.761719h-20.878906l-13.917969-53.761719h12.296875l10.320312 43.800782zm0 0"/><path d="m1485.71875 684.179688.242188 8.699218s-12.242188 2.460938-21.722657 2.460938c-16.136719 0-22.378906-8.578125-22.378906-27.539063 0-18.960937 8.519531-28.621093 23.339844-28.621093 14.820312 0 22.621093 7.859374 22.621093 24.660156l-.78125 8.398437h-33.359374c.121093 8.582031 3.359374 12.902344 12.300781 12.902344 8.941406 0 19.800781-.960937 19.800781-.960937zm-20.578125-35.28125c-7.980469 0-11.519531 3.960937-11.640625 14.28125h22.738281c0-10.738282-3.238281-14.28125-11.097656-14.28125zm0 0"/><path d="m1510.679688 640.441406v6.480469s9.179687-5.941406 18.300781-7.621094v11.757813c-9.78125 1.921875-18.179688 5.703125-18.179688 5.703125v37.558593h-11.761719v-53.761718h11.640626zm0 0"/><path d="m1578.839844 684.179688.238281 8.699218s-12.238281 2.460938-21.71875 2.460938c-16.140625 0-22.378906-8.578125-22.378906-27.539063 0-18.960937 8.519531-28.621093 23.339843-28.621093 14.820313 0 22.621094 7.859374 22.621094 24.660156l-.78125 8.398437h-33.359375c.121094 8.582031 3.359375 12.902344 12.300781 12.902344 8.9375 0 19.796876-.960937 19.796876-.960937zm-20.578125-35.28125c-7.980469 0-11.523438 3.960937-11.640625 14.28125h22.738281c0-10.738282-3.238281-14.28125-11.097656-14.28125zm0 0"/><path d="m1603.921875 618.898438v12.363281h-11.761719v-12.363281zm0 21.542968v53.757813h-11.761719v-53.757813zm0 0"/><path d="m1618.140625 640.441406h11.640625v3.359375s7.859375-4.5 14.878906-4.5c14.941406 0 18.601563 8.519531 18.601563 26.160157v28.800781h-11.640625v-28.5c0-10.742188-1.382813-16.023438-9.601563-16.023438-6.238281 0-12.179687 2.820313-12.179687 2.820313v41.761718h-11.761719v-53.761718zm0 0"/><path d="m1695.121094 649.800781c-6.480469 0-9.359375 1.5-9.359375 5.9375 0 3.542969 2.277343 4.5 12.839843 6.363281 12.898438 2.277344 17.519532 5.457032 17.519532 16.257813 0 12.601563-7.980469 17.101563-21.300782 17.101563-7.441406 0-19.921874-2.339844-19.921874-2.339844l.421874-9.78125s12.898438 1.738281 18.417969 1.738281c7.742188 0 10.742188-1.617187 10.742188-6.359375 0-3.777344-1.859375-4.980469-12.480469-6.660156-11.820312-1.917969-17.878906-4.5-17.878906-15.898438 0-12.179687 9.480468-16.679687 20.160156-16.679687 7.859375 0 20.21875 2.339843 20.21875 2.339843l-.238281 9.78125s-12.722657-1.742187-19.140625-1.742187zm0 0"/><path d="m48.515625 0h-40.234375v-71.78125h11.625v61.40625h28.609375zm0 0" transform="translate(53.649381 810.804818)"/><path d="m45.6875-36.265625v23.90625c.070312 1.53125.472656 2.667969 1.203125 3.40625.738281.730469 1.875 1.199219 3.40625 1.40625l-.3125 8.703125c-6.011719 0-10.65625-1.289062-13.9375-3.875-5.585937 2.585938-11.210937 3.875-16.875 3.875-10.40625 0-15.609375-5.554688-15.609375-16.671875 0-5.300781 1.410156-9.140625 4.234375-11.515625 2.832031-2.375 7.1875-3.804688 13.0625-4.296875l13.515625-1.15625v-3.78125c0-2.789063-.617188-4.742187-1.84375-5.859375-1.21875-1.125-3.015625-1.6875-5.390625-1.6875-4.46875 0-10.058594.28125-16.765625.84375l-3.359375.21875-.40625-8.078125c7.613281-1.8125 14.613281-2.71875 21-2.71875 6.394531 0 11.003906 1.382813 13.828125 4.140625 2.832031 2.761719 4.25 7.140625 4.25 13.140625zm-23.46875 13c-4.824219.417969-7.234375 3.039063-7.234375 7.859375 0 4.824219 2.128906 7.234375 6.390625 7.234375 3.5 0 7.203125-.554687 11.109375-1.671875l1.890625-.640625v-13.9375zm0 0" transform="translate(103.424185 810.804818)"/><path d="m18.34375 0h-11.421875v-52.40625h11.3125v3.25c5.101563-2.925781 9.925781-4.390625 14.46875-4.390625 6.976563 0 11.742187 1.976563 14.296875 5.921875 2.550781 3.949219 3.828125 10.464844 3.828125 19.546875v28.078125h-11.3125v-27.765625c0-5.664063-.617187-9.6875-1.84375-12.0625-1.21875-2.375-3.714844-3.5625-7.484375-3.5625-3.5625 0-6.992188.699219-10.28125 2.09375l-1.5625.640625zm0 0" transform="translate(156.552246 810.804818)"/><path d="m49.671875-74.203125v74.203125h-11.3125v-2.71875c-5.105469 2.585938-9.789063 3.875-14.046875 3.875-6.84375 0-11.859375-2.0625-15.046875-6.1875-3.179687-4.125-4.765625-11.039062-4.765625-20.75 0-9.707031 1.765625-16.757812 5.296875-21.15625 3.53125-4.40625 9.03125-6.609375 16.5-6.609375 2.519531 0 6.503906.453125 11.953125 1.359375v-22.015625zm-13.203125 63.296875 1.78125-.71875v-31.03125c-4.1875-.695312-8.0625-1.046875-11.625-1.046875-7.0625 0-10.59375 5.871094-10.59375 17.609375 0 6.429688.816406 10.882812 2.453125 13.359375 1.644531 2.480469 4.25 3.71875 7.8125 3.71875 3.570313 0 6.960937-.628906 10.171875-1.890625zm0 0" transform="translate(213.767082 810.804818)"/><path d="m44.21875-9.4375 2.9375-.3125.21875 8.5c-7.96875 1.601562-15.027344 2.40625-21.171875 2.40625-7.761719 0-13.335937-2.128906-16.71875-6.390625-3.386719-4.257813-5.078125-11.070313-5.078125-20.4375 0-18.582031 7.578125-27.875 22.734375-27.875 14.675781 0 22.015625 8 22.015625 24l-.734375 8.171875h-32.5c.070313 4.335938 1.015625 7.515625 2.828125 9.546875 1.820312 2.023437 5.210938 3.03125 10.171875 3.03125 4.957031 0 10.054687-.210937 15.296875-.640625zm-6.28125-20.75c0-5.164062-.824219-8.78125-2.46875-10.84375-1.636719-2.0625-4.414062-3.09375-8.328125-3.09375-3.90625 0-6.757813 1.085938-8.546875 3.25-1.78125 2.167969-2.703125 5.730469-2.765625 10.6875zm0 0" transform="translate(270.353181 810.804818)"/><path d="m43.28125-41.609375c-8.242188-1.113281-14.214844-1.671875-17.921875-1.671875-3.699219 0-6.265625.4375-7.703125 1.3125-1.429688.875-2.140625 2.257812-2.140625 4.140625 0 1.886719.78125 3.214844 2.34375 3.984375 1.570313.761719 5.273437 1.652344 11.109375 2.671875 5.84375 1.011719 9.984375 2.601563 12.421875 4.765625 2.445313 2.167969 3.671875 6.011719 3.671875 11.53125 0 5.511719-1.765625 9.5625-5.296875 12.15625-3.523437 2.585938-8.671875 3.875-15.453125 3.875-4.261719 0-9.640625-.59375-16.140625-1.78125l-3.25-.53125.421875-9.53125c8.382812 1.117188 14.425781 1.671875 18.125 1.671875 3.707031 0 6.347656-.453125 7.921875-1.359375 1.570313-.90625 2.359375-2.40625 2.359375-4.5 0-2.101562-.757812-3.554688-2.265625-4.359375-1.5-.800781-5.101563-1.671875-10.796875-2.609375-5.6875-.945312-9.859375-2.429688-12.515625-4.453125-2.65625-2.03125-3.984375-5.734375-3.984375-11.109375 0-5.382812 1.832031-9.40625 5.5-12.0625 3.675781-2.65625 8.375-3.984375 14.09375-3.984375 4.476562 0 9.960938.5625 16.453125 1.6875l3.25.625zm0 0" transform="translate(323.586034 810.804818)"/><path d="m1.984375-52.40625h11.953125l10.0625 42.65625h3.359375l10.46875-42.65625h11.640625l-13.625 52.40625h-20.328125zm0 0" transform="translate(372.732112 810.804818)"/><path d="m44.21875-9.4375 2.9375-.3125.21875 8.5c-7.96875 1.601562-15.027344 2.40625-21.171875 2.40625-7.761719 0-13.335937-2.128906-16.71875-6.390625-3.386719-4.257813-5.078125-11.070313-5.078125-20.4375 0-18.582031 7.578125-27.875 22.734375-27.875 14.675781 0 22.015625 8 22.015625 24l-.734375 8.171875h-32.5c.070313 4.335938 1.015625 7.515625 2.828125 9.546875 1.820312 2.023437 5.210938 3.03125 10.171875 3.03125 4.957031 0 10.054687-.210937 15.296875-.640625zm-6.28125-20.75c0-5.164062-.824219-8.78125-2.46875-10.84375-1.636719-2.0625-4.414062-3.09375-8.328125-3.09375-3.90625 0-6.757813 1.085938-8.546875 3.25-1.78125 2.167969-2.703125 5.730469-2.765625 10.6875zm0 0" transform="translate(424.183556 810.804818)"/><path d="m6.921875 0v-52.40625h11.3125v6.296875c5.9375-3.84375 11.875-6.320313 17.8125-7.4375v11.421875c-6.011719 1.1875-11.148437 2.726562-15.40625 4.609375l-2.296875.9375v36.578125zm0 0" transform="translate(477.416387 810.804818)"/><path d="m31.328125-53.546875c7.195313 0 12.382813 2.011719 15.5625 6.03125 3.1875 4.011719 4.78125 11.117187 4.78125 21.3125 0 10.199219-1.890625 17.308594-5.671875 21.328125-3.773438 4.023438-10.40625 6.03125-19.90625 6.03125-3.28125 0-8.484375-.320312-15.609375-.953125l-3.5625-.3125v-74.09375h11.3125v23.796875c4.820313-2.09375 9.1875-3.140625 13.09375-3.140625zm-5.234375 44.53125c5.59375 0 9.3125-1.304687 11.15625-3.921875 1.851562-2.625 2.78125-7.078125 2.78125-13.359375 0-6.289063-.789062-10.710937-2.359375-13.265625-1.574219-2.550781-4.140625-3.828125-7.703125-3.828125-3.355469 0-6.710938.527344-10.0625 1.578125l-1.671875.515625v31.859375c3.84375.28125 6.460937.421875 7.859375.421875zm0 0" transform="translate(515.245243 810.804818)"/><path d="m45.6875-36.265625v23.90625c.070312 1.53125.472656 2.667969 1.203125 3.40625.738281.730469 1.875 1.199219 3.40625 1.40625l-.3125 8.703125c-6.011719 0-10.65625-1.289062-13.9375-3.875-5.585937 2.585938-11.210937 3.875-16.875 3.875-10.40625 0-15.609375-5.554688-15.609375-16.671875 0-5.300781 1.410156-9.140625 4.234375-11.515625 2.832031-2.375 7.1875-3.804688 13.0625-4.296875l13.515625-1.15625v-3.78125c0-2.789063-.617188-4.742187-1.84375-5.859375-1.21875-1.125-3.015625-1.6875-5.390625-1.6875-4.46875 0-10.058594.28125-16.765625.84375l-3.359375.21875-.40625-8.078125c7.613281-1.8125 14.613281-2.71875 21-2.71875 6.394531 0 11.003906 1.382813 13.828125 4.140625 2.832031 2.761719 4.25 7.140625 4.25 13.140625zm-23.46875 13c-4.824219.417969-7.234375 3.039063-7.234375 7.859375 0 4.824219 2.128906 7.234375 6.390625 7.234375 3.5 0 7.203125-.554687 11.109375-1.671875l1.890625-.640625v-13.9375zm0 0" transform="translate(571.412202 810.804818)"/><path d="m18.34375 0h-11.421875v-52.40625h11.3125v3.25c5.101563-2.925781 9.925781-4.390625 14.46875-4.390625 6.976563 0 11.742187 1.976563 14.296875 5.921875 2.550781 3.949219 3.828125 10.464844 3.828125 19.546875v28.078125h-11.3125v-27.765625c0-5.664063-.617187-9.6875-1.84375-12.0625-1.21875-2.375-3.714844-3.5625-7.484375-3.5625-3.5625 0-6.992188.699219-10.28125 2.09375l-1.5625.640625zm0 0" transform="translate(624.540251 810.804818)"/><path d="m49.671875-74.203125v74.203125h-11.3125v-2.71875c-5.105469 2.585938-9.789063 3.875-14.046875 3.875-6.84375 0-11.859375-2.0625-15.046875-6.1875-3.179687-4.125-4.765625-11.039062-4.765625-20.75 0-9.707031 1.765625-16.757812 5.296875-21.15625 3.53125-4.40625 9.03125-6.609375 16.5-6.609375 2.519531 0 6.503906.453125 11.953125 1.359375v-22.015625zm-13.203125 63.296875 1.78125-.71875v-31.03125c-4.1875-.695312-8.0625-1.046875-11.625-1.046875-7.0625 0-10.59375 5.871094-10.59375 17.609375 0 6.429688.816406 10.882812 2.453125 13.359375 1.644531 2.480469 4.25 3.71875 7.8125 3.71875 3.570313 0 6.960937-.628906 10.171875-1.890625zm0 0" transform="translate(681.755076 810.804818)"/><path d="m8.28125 0v-71.78125h20.328125l21.796875 61.515625h1.578125v-61.515625h11.625v71.78125h-19.90625l-22.328125-61.625h-1.46875v61.625zm0 0" transform="translate(761.394735 810.804818)"/><path d="m9.796875-46.734375c3.601563-4.539063 9.59375-6.8125 17.96875-6.8125 8.382813 0 14.375 2.273437 17.96875 6.8125 3.601563 4.542969 5.40625 11.355469 5.40625 20.4375 0 9.074219-1.75 15.917969-5.25 20.53125-3.492187 4.617187-9.53125 6.921875-18.125 6.921875s-14.636719-2.304688-18.125-6.921875c-3.492187-4.613281-5.234375-11.457031-5.234375-20.53125 0-9.082031 1.796875-15.894531 5.390625-20.4375zm8.53125 34.0625c1.613281 2.792969 4.757813 4.1875 9.4375 4.1875 4.6875 0 7.832031-1.394531 9.4375-4.1875 1.601563-2.800781 2.40625-7.378906 2.40625-13.734375 0-6.363281-.855469-10.867188-2.5625-13.515625-1.710937-2.65625-4.804687-3.984375-9.28125-3.984375-4.46875 0-7.5625 1.328125-9.28125 3.984375-1.710937 2.648437-2.5625 7.152344-2.5625 13.515625 0 6.355469.800781 10.933594 2.40625 13.734375zm0 0" transform="translate(833.280016 810.804818)"/><path d="m6.921875 0v-52.40625h11.3125v6.296875c5.9375-3.84375 11.875-6.320313 17.8125-7.4375v11.421875c-6.011719 1.1875-11.148437 2.726562-15.40625 4.609375l-2.296875.9375v36.578125zm0 0" transform="translate(888.818191 810.804818)"/><path d="m49.671875-74.203125v74.203125h-11.3125v-2.71875c-5.105469 2.585938-9.789063 3.875-14.046875 3.875-6.84375 0-11.859375-2.0625-15.046875-6.1875-3.179687-4.125-4.765625-11.039062-4.765625-20.75 0-9.707031 1.765625-16.757812 5.296875-21.15625 3.53125-4.40625 9.03125-6.609375 16.5-6.609375 2.519531 0 6.503906.453125 11.953125 1.359375v-22.015625zm-13.203125 63.296875 1.78125-.71875v-31.03125c-4.1875-.695312-8.0625-1.046875-11.625-1.046875-7.0625 0-10.59375 5.871094-10.59375 17.609375 0 6.429688.816406 10.882812 2.453125 13.359375 1.644531 2.480469 4.25 3.71875 7.8125 3.71875 3.570313 0 6.960937-.628906 10.171875-1.890625zm0 0" transform="translate(926.647046 810.804818)"/><path d="m6.921875 0v-52.40625h11.3125v6.296875c5.9375-3.84375 11.875-6.320313 17.8125-7.4375v11.421875c-6.011719 1.1875-11.148437 2.726562-15.40625 4.609375l-2.296875.9375v36.578125zm0 0" transform="translate(983.233133 810.804818)"/><path d="m18.34375 0h-11.421875v-74.203125h11.421875v24.53125c5.164062-2.582031 9.953125-3.875 14.359375-3.875 6.976563 0 11.742187 1.976563 14.296875 5.921875 2.550781 3.949219 3.828125 10.464844 3.828125 19.546875v28.078125h-11.421875v-27.765625c0-5.664063-.59375-9.6875-1.78125-12.0625s-3.703125-3.5625-7.546875-3.5625c-3.355469 0-6.710937.5625-10.0625 1.6875l-1.671875.625zm0 0" transform="translate(1021.061989 810.804818)"/><path d="m44.21875-9.4375 2.9375-.3125.21875 8.5c-7.96875 1.601562-15.027344 2.40625-21.171875 2.40625-7.761719 0-13.335937-2.128906-16.71875-6.390625-3.386719-4.257813-5.078125-11.070313-5.078125-20.4375 0-18.582031 7.578125-27.875 22.734375-27.875 14.675781 0 22.015625 8 22.015625 24l-.734375 8.171875h-32.5c.070313 4.335938 1.015625 7.515625 2.828125 9.546875 1.820312 2.023437 5.210938 3.03125 10.171875 3.03125 4.957031 0 10.054687-.210937 15.296875-.640625zm-6.28125-20.75c0-5.164062-.824219-8.78125-2.46875-10.84375-1.636719-2.0625-4.414062-3.09375-8.328125-3.09375-3.90625 0-6.757813 1.085938-8.546875 3.25-1.78125 2.167969-2.703125 5.730469-2.765625 10.6875zm0 0" transform="translate(1078.276861 810.804818)"/><path d="m6.921875 0v-52.40625h11.421875v52.40625zm0-61.3125v-12.046875h11.421875v12.046875zm0 0" transform="translate(1131.509738 810.804818)"/><path d="m18.34375 0h-11.421875v-52.40625h11.3125v3.25c5.101563-2.925781 9.925781-4.390625 14.46875-4.390625 6.976563 0 11.742187 1.976563 14.296875 5.921875 2.550781 3.949219 3.828125 10.464844 3.828125 19.546875v28.078125h-11.3125v-27.765625c0-5.664063-.617187-9.6875-1.84375-12.0625-1.21875-2.375-3.714844-3.5625-7.484375-3.5625-3.5625 0-6.992188.699219-10.28125 2.09375l-1.5625.640625zm0 0" transform="translate(1156.763917 810.804818)"/><path d="m6.390625-23.0625v-10.375h31.34375v10.375zm0 0" transform="translate(1213.978788 810.804818)"/><path d="m2.515625-71.78125h12.265625l10.265625 61.71875h2.203125l13.625-61.515625h13.625l13.625 61.515625h2.296875l10.265625-61.71875h12.265625l-14.140625 71.78125h-18.765625l-12.359375-57.53125-12.265625 57.53125h-18.859375zm0 0" transform="translate(1258.095027 810.804818)"/><path d="m44.21875-9.4375 2.9375-.3125.21875 8.5c-7.96875 1.601562-15.027344 2.40625-21.171875 2.40625-7.761719 0-13.335937-2.128906-16.71875-6.390625-3.386719-4.257813-5.078125-11.070313-5.078125-20.4375 0-18.582031 7.578125-27.875 22.734375-27.875 14.675781 0 22.015625 8 22.015625 24l-.734375 8.171875h-32.5c.070313 4.335938 1.015625 7.515625 2.828125 9.546875 1.820312 2.023437 5.210938 3.03125 10.171875 3.03125 4.957031 0 10.054687-.210937 15.296875-.640625zm-6.28125-20.75c0-5.164062-.824219-8.78125-2.46875-10.84375-1.636719-2.0625-4.414062-3.09375-8.328125-3.09375-3.90625 0-6.757813 1.085938-8.546875 3.25-1.78125 2.167969-2.703125 5.730469-2.765625 10.6875zm0 0" transform="translate(1353.557882 810.804818)"/><path d="m43.28125-41.609375c-8.242188-1.113281-14.214844-1.671875-17.921875-1.671875-3.699219 0-6.265625.4375-7.703125 1.3125-1.429688.875-2.140625 2.257812-2.140625 4.140625 0 1.886719.78125 3.214844 2.34375 3.984375 1.570313.761719 5.273437 1.652344 11.109375 2.671875 5.84375 1.011719 9.984375 2.601563 12.421875 4.765625 2.445313 2.167969 3.671875 6.011719 3.671875 11.53125 0 5.511719-1.765625 9.5625-5.296875 12.15625-3.523437 2.585938-8.671875 3.875-15.453125 3.875-4.261719 0-9.640625-.59375-16.140625-1.78125l-3.25-.53125.421875-9.53125c8.382812 1.117188 14.425781 1.671875 18.125 1.671875 3.707031 0 6.347656-.453125 7.921875-1.359375 1.570313-.90625 2.359375-2.40625 2.359375-4.5 0-2.101562-.757812-3.554688-2.265625-4.359375-1.5-.800781-5.101563-1.671875-10.796875-2.609375-5.6875-.945312-9.859375-2.429688-12.515625-4.453125-2.65625-2.03125-3.984375-5.734375-3.984375-11.109375 0-5.382812 1.832031-9.40625 5.5-12.0625 3.675781-2.65625 8.375-3.984375 14.09375-3.984375 4.476562 0 9.960938.5625 16.453125 1.6875l3.25.625zm0 0" transform="translate(1406.790759 810.804818)"/><path d="m35.109375-42.65625h-14.46875v23.0625c0 4.261719.3125 7.089844.9375 8.484375.632813 1.398437 2.242187 2.09375 4.828125 2.09375l8.59375-.3125.53125 9.125c-4.6875.90625-8.25 1.359375-10.6875 1.359375-5.949219 0-10.023438-1.359375-12.21875-4.078125-2.199219-2.726563-3.296875-7.867187-3.296875-15.421875v-24.3125h-6.703125v-9.75h6.703125v-15.1875h11.3125v15.1875h14.46875zm0 0" transform="translate(1455.936813 810.804818)"/><path d="m20.640625-42.65625v42.65625h-11.3125v-42.65625h-6.078125v-9.75h6.078125v-3.34375c0-7.476562 1.082031-12.613281 3.25-15.40625 2.164063-2.789062 6.007813-4.1875 11.53125-4.1875l11.3125 1.046875-.109375 9.328125c-3.417969-.144531-6.261719-.21875-8.53125-.21875-2.273438 0-3.867188.683594-4.78125 2.046875-.90625 1.367187-1.359375 3.867187-1.359375 7.5v3.234375h13.84375v9.75zm0 0" transform="translate(1493.451277 810.804818)"/><path d="m45.6875-36.265625v23.90625c.070312 1.53125.472656 2.667969 1.203125 3.40625.738281.730469 1.875 1.199219 3.40625 1.40625l-.3125 8.703125c-6.011719 0-10.65625-1.289062-13.9375-3.875-5.585937 2.585938-11.210937 3.875-16.875 3.875-10.40625 0-15.609375-5.554688-15.609375-16.671875 0-5.300781 1.410156-9.140625 4.234375-11.515625 2.832031-2.375 7.1875-3.804688 13.0625-4.296875l13.515625-1.15625v-3.78125c0-2.789063-.617188-4.742187-1.84375-5.859375-1.21875-1.125-3.015625-1.6875-5.390625-1.6875-4.46875 0-10.058594.28125-16.765625.84375l-3.359375.21875-.40625-8.078125c7.613281-1.8125 14.613281-2.71875 21-2.71875 6.394531 0 11.003906 1.382813 13.828125 4.140625 2.832031 2.761719 4.25 7.140625 4.25 13.140625zm-23.46875 13c-4.824219.417969-7.234375 3.039063-7.234375 7.859375 0 4.824219 2.128906 7.234375 6.390625 7.234375 3.5 0 7.203125-.554687 11.109375-1.671875l1.890625-.640625v-13.9375zm0 0" transform="translate(1529.708263 810.804818)"/><path d="m7.546875 0v-74.203125h11.421875v74.203125zm0 0" transform="translate(1582.836312 810.804818)"/><path d="m44.21875-9.4375 2.9375-.3125.21875 8.5c-7.96875 1.601562-15.027344 2.40625-21.171875 2.40625-7.761719 0-13.335937-2.128906-16.71875-6.390625-3.386719-4.257813-5.078125-11.070313-5.078125-20.4375 0-18.582031 7.578125-27.875 22.734375-27.875 14.675781 0 22.015625 8 22.015625 24l-.734375 8.171875h-32.5c.070313 4.335938 1.015625 7.515625 2.828125 9.546875 1.820312 2.023437 5.210938 3.03125 10.171875 3.03125 4.957031 0 10.054687-.210937 15.296875-.640625zm-6.28125-20.75c0-5.164062-.824219-8.78125-2.46875-10.84375-1.636719-2.0625-4.414062-3.09375-8.328125-3.09375-3.90625 0-6.757813 1.085938-8.546875 3.25-1.78125 2.167969-2.703125 5.730469-2.765625 10.6875zm0 0" transform="translate(1609.347968 810.804818)"/><path d="m18.34375 0h-11.421875v-52.40625h11.3125v3.25c5.101563-2.925781 9.925781-4.390625 14.46875-4.390625 6.976563 0 11.742187 1.976563 14.296875 5.921875 2.550781 3.949219 3.828125 10.464844 3.828125 19.546875v28.078125h-11.3125v-27.765625c0-5.664063-.617187-9.6875-1.84375-12.0625-1.21875-2.375-3.714844-3.5625-7.484375-3.5625-3.5625 0-6.992188.699219-10.28125 2.09375l-1.5625.640625zm0 0" transform="translate(1662.580754 810.804818)"/></svg>